<svg width="80" height="80" viewBox="0 0 80 80" fill="none" xmlns="http://www.w3.org/2000/svg">
<path d="M76.3144 34.0459C75.4327 33.2171 74.3882 32.5995 73.2762 32.1253C66.7152 29.312 69.7733 21.1313 69.7733 21.1313C70.7105 15.2259 68.2442 12.5083 65.6905 11.2611C63.7087 10.2928 61.433 10.1812 59.2963 10.7271C51.7305 12.6518 48.867 7.96968 47.9932 5.90558C47.5246 4.79781 46.9368 3.73388 46.1663 2.81341C43.0725 -0.880465 39.78 -0.338538 37.3097 1.0641C35.2008 2.26351 33.7035 4.27183 32.8775 6.55908C30.6454 12.7235 22.9605 10.6953 22.9605 10.6953C3.94462 6.45547 10.6089 26.0246 10.6089 26.0246C12.0069 29.6468 9.23077 31.0932 7.54683 31.6192C6.32358 32.0057 5.14403 32.5198 4.08759 33.245C-0.75374 36.5603 -0.47573 40.1586 0.791198 42.7566C1.70069 44.6135 3.21385 46.1197 5.05268 47.0641C11.4032 50.3316 10.7717 55.4879 10.4103 57.042C10.2316 57.7991 10.0608 58.5641 9.94168 59.3332C7.85264 72.6144 17.2891 70.901 19.7753 70.2315C20.4862 70.0402 21.2011 69.8729 21.9279 69.7653C27.8852 68.8966 30.2006 71.4469 31.0744 73.1762C32.0315 75.065 33.3223 76.7785 35.0142 78.0536C42.6515 83.8156 47.5047 74.9495 47.5047 74.9495C51.0275 69.1038 55.7894 69.6019 57.2787 69.9327C58.0373 70.1 58.7998 70.2554 59.5703 70.3471C66.3418 71.156 68.9909 68.267 70.0076 65.5295C70.6986 63.6726 70.643 61.6324 70.0433 59.7396C67.3466 51.2282 73.026 49.184 73.026 49.184C84.1463 43.4181 79.3686 36.9189 76.3144 34.0459ZM24.7278 50.0447L25.6055 47.881C25.6055 47.881 30.8003 51.0608 34.7123 46.7294L36.5988 47.9488C36.5988 47.9488 32.5518 52.7504 24.7278 50.0447ZM32.5756 56.6993L32.4525 54.1968C32.4525 54.1968 37.8379 55.9422 39.3273 50.2958L41.3091 50.9931C41.3091 50.9931 39.8912 57.1695 32.5756 56.6993ZM54.2723 39.8796C54.2723 39.8796 52.6479 40.4614 53.4184 42.8961C53.5891 43.434 53.605 44.0198 53.4104 44.5498C53.1165 45.3308 52.3619 46.1556 50.4278 45.9245C50.2093 45.8966 49.9909 45.8528 49.7725 45.805C49.3475 45.7093 47.9892 45.5699 46.9844 47.2395C46.9844 47.2395 45.5984 49.7698 43.414 48.1241C42.9334 47.7615 42.5641 47.2713 42.2901 46.7294C42.0398 46.2393 41.3806 45.5101 39.6768 45.7571C39.4702 45.789 39.2677 45.8368 39.0651 45.8926C38.3542 46.0799 35.6575 46.57 36.2533 42.7765C36.289 42.5574 36.3367 42.3422 36.3883 42.123C36.4916 41.6807 36.6743 40.2064 34.8593 39.2739C34.335 39.003 33.9021 38.5766 33.644 38.0426C33.2786 37.3015 33.1991 36.2734 34.5813 35.329C34.8831 35.1218 35.2207 34.9744 35.5702 34.8628C36.0507 34.7114 36.845 34.301 36.4439 33.2649C36.4439 33.2649 34.5415 27.6783 39.9746 28.8897C39.9746 28.8897 42.1669 29.4674 42.8064 27.7062C43.0407 27.0527 43.4696 26.4789 44.0693 26.1362C44.7763 25.7377 45.7175 25.5823 46.5992 26.6383C46.8216 26.9013 46.9884 27.2041 47.1234 27.5189C47.3697 28.1086 48.1878 29.4475 50.3484 28.8976C50.96 28.7422 51.6113 28.7741 52.1753 29.049C52.906 29.4077 53.609 30.1807 53.3429 31.8703C53.3429 31.8703 52.4692 34.2053 54.3437 35.0063C54.6615 35.1417 54.9593 35.3211 55.2095 35.5562C56.0833 36.377 57.4455 38.2339 54.2723 39.8796Z" fill="white"/>
</svg>
